HIERARCHY
ROOT Hips
{
  OFFSET 320.38 92.8844 -18.9421
  CHANNELS 6 Xposition Yposition Zposition Zrotation Xrotation Yrotation
  JOINT ToSpine
  {
    OFFSET -2.69724 7.43032 -0.144315
    CHANNELS 3 Zrotation Xrotation Yrotation
    JOINT Spine
    {
      OFFSET -0.0310711 10.7595 1.96963
      CHANNELS 3 Zrotation Xrotation Yrotation
      JOINT Spine1
      {
        OFFSET 13.1342 3.43533 0.764692
        CHANNELS 3 Zrotation Xrotation Yrotation
        JOINT Neck
        {
          OFFSET 29.8703 7.82586 -0.130764
          CHANNELS 3 Zrotation Xrotation Yrotation
          JOINT Head
          {
            OFFSET 9.52751 0.295786 -0.907742
            CHANNELS 3 Zrotation Xrotation Yrotation
            End Site
            {
              OFFSET 16.4037 0.713936 2.7358
            }
          }
        }
        JOINT LeftShoulder
        {
          OFFSET 27.5574 4.95586 2.47156
          CHANNELS 3 Zrotation Xrotation Yrotation
          JOINT LeftArm
          {
            OFFSET 1.20734 -0.998971 20.1238
            CHANNELS 3 Zrotation Xrotation Yrotation
            JOINT LeftForeArm
            {
              OFFSET 26.8049 -0.0536703 -0.155908
              CHANNELS 3 Zrotation Xrotation Yrotation
              JOINT LeftHand
              {
                OFFSET 26.6817 0 0.320147
                CHANNELS 3 Zrotation Xrotation Yrotation
                End Site
                {
                  OFFSET 18.6119 0 0.382219
                }
              }
            }
          }
        }
        JOINT RightShoulder
        {
          OFFSET 27.5927 4.71444 -2.65209
          CHANNELS 3 Zrotation Xrotation Yrotation
          JOINT RightArm
          {
            OFFSET 2.83739 -1.17114 -18.7564
            CHANNELS 3 Zrotation Xrotation Yrotation
            JOINT RightForeArm
            {
              OFFSET 28.839 -0.0548439 1.22491
              CHANNELS 3 Zrotation Xrotation Yrotation
              JOINT RightHand
              {
                OFFSET 26.5114 0 -0.101894
                CHANNELS 3 Zrotation Xrotation Yrotation
                End Site
                {
                  OFFSET 18.2168 0 0
                }
              }
            }
          }
        }
      }
    }
  }
  JOINT LeftUpLeg
  {
    OFFSET -4.76168 -1.9167 -10.2353
    CHANNELS 3 Zrotation Xrotation Yrotation
    JOINT LeftLeg
    {
      OFFSET 2.55951 -42.0585 -8.02213
      CHANNELS 3 Zrotation Xrotation Yrotation
      JOINT LeftFoot
      {
        OFFSET 3.16357 -42.5282 -3.95426
        CHANNELS 3 Zrotation Xrotation Yrotation
        JOINT LeftToeBase
        {
          OFFSET 0.346054 -6.02161 12.8035
          CHANNELS 3 Zrotation Xrotation Yrotation
          End Site
          {
            OFFSET 0.134235 -1.35082 5.13018
          }
        }
      }
    }
  }
  JOINT RightUpLeg
  {
    OFFSET -4.94151 -1.41743 10.6446
    CHANNELS 3 Zrotation Xrotation Yrotation
    JOINT RightLeg
    {
      OFFSET -2.56294 -42.0364 -7.94377
      CHANNELS 3 Zrotation Xrotation Yrotation
      JOINT RightFoot
      {
        OFFSET -3.0952 -42.555 -4.02241
        CHANNELS 3 Zrotation Xrotation Yrotation
        JOINT RightToeBase
        {
          OFFSET -0.0828122 -6.13587 12.8035
          CHANNELS 3 Zrotation Xrotation Yrotation
          End Site
          {
            OFFSET -0.131328 -1.35082 5.13018
          }
        }
      }
    }
  }
}
MOTION
Frames:	8
Frame Time:	0.0333333
27.0095 90.4932 -249.008 15.4367 -66.3633 -80.7409 -70.1915 0 88.8779 93.9785 69.4786 -14.1268 -0.81373 19.322 0.232659 -154.923 17.6432 173.444 -156.333 57.0029 -172.371 0.31819 -13.6429 -31.6033 -79.0723 47.43 -69.2634 20.1177 -1.12637 -92.3626 0.420957 0.000575435 0.35866 -1.87648 5.76138 47.0226 -66.0552 -43.1299 72.9801 19.4769 -5.51536 74.6666 0.58676 0.000330997 0.0646654 -43.9629 -5.0673 95.5032 -6.01827 56.4585 -12.7321 4.09971 -17.203 -1.37163 9.25955 -19.0376 19.7225 -16.6798 -1.49507 85.439 158.224 83.8657 -174.907 -13.062 4.26024 1.99019 2.41467 -19.3449 1.92119 
27.206 92.2053 -238.533 10.5844 -66.7404 -85.28 -70.1915 0 88.8779 93.582 68.8806 -13.4485 -1.75737 18.5056 1.4055 -153.841 15.1719 176.036 -155.475 54.3937 -172.223 0.733842 -11.7879 -29.9056 -82.331 49.342 -69.4434 21.3871 -2.98764 -96.8465 0.420957 0.000575435 0.35866 -1.9607 6.03649 46.8898 -65.9204 -43.9847 67.1292 19.0417 -4.67195 76.5833 0.58676 0.000330997 0.0646654 -53.4775 -4.67016 95.2006 -4.36909 50.3822 -10.1816 1.72691 -13.2556 -1.16549 8.96466 -18.6813 14.7827 -13.8202 -0.560847 85.1626 12.0398 79.7589 -20.9555 -8.4453 2.84089 1.22953 2.22962 -17.1516 -10.7486 
27.5261 93.8241 -227.867 8.05929 -67.2403 -86.371 -70.1915 0 88.8779 91.3136 68.1812 -8.74315 -0.539522 17.8604 1.24747 -152.409 13.0992 177.458 -152.371 51.8566 -174.326 0.749208 -11.7054 -29.9514 -83.429 49.6494 -67.228 20.9627 -5.08527 -102.262 0.420957 0.000575435 0.35866 -1.93085 6.1354 45.9158 -66.5038 -44.5167 62.8032 19.5841 -4.25034 78.084 0.58676 0.000330997 0.0646654 -60.924 -3.57974 93.6362 -3.48706 46.5143 -7.9439 -0.154622 -2.14093 -0.240443 10.8798 -21.9377 8.14516 -16.3274 -0.585265 83.2001 1.16248 57.0192 -13.0421 -6.91788 3.36853 0.985287 1.8565 -15.3058 0.678058 
27.6223 95.1629 -217.263 8.8681 -66.6698 -84.8451 -70.1915 0 88.8779 86.1553 67.3958 -2.40723 0.765788 17.0116 1.61402 -152.478 11.4702 -179.769 -153.767 50.2502 -173.182 0.760917 -11.6234 -30.27 -81.6935 49.5725 -67.2087 21.6072 -6.36155 -104.852 0.420957 0.000575435 0.35866 -1.74318 5.79637 44.6544 -67.2644 -43.6501 61.0284 20.7747 -4.0252 79.3582 0.58676 0.000330997 0.0646654 -63.9589 -2.33956 93.4329 -3.76878 47.7352 -9.01252 -1.56348 3.69789 0.448786 3.77169 -10.0274 9.53527 -21.0561 -0.15072 84.5838 0.740165 33.355 -4.40959 -2.52961 11.6215 -0.160102 2.09436 -10.871 -11.4972 
27.7182 95.2353 -207.088 11.6422 -66.6901 -81.8005 -70.1915 0 88.8779 81.5801 66.8061 3.18934 3.27153 16.7053 1.05965 -152.199 10.6743 -177.937 -153.484 49.4711 -171.823 0.605779 -12.3878 -30.4707 -78.9419 49.8656 -67.6825 21.6403 -5.78183 -103.478 0.420957 0.000575435 0.35866 -1.75085 6.03072 43.6064 -68.7928 -42.719 60.9677 22.0843 -3.80936 80.5331 0.58676 0.000330997 0.0646654 -63.0452 -1.63467 93.2002 -4.14044 55.9047 -1.49105 -1.00153 2.79469 0.280591 2.9481 -8.00299 6.60608 -23.6593 -1.2974 85.3625 1.35928 24.8042 3.08114 0.280939 17.967 -1.29983 2.66947 -9.22164 -18.9746 
27.6546 94.6959 -196.951 16.2412 -68.0635 -77.2036 -70.1915 0 88.8779 83.8173 67.4479 1.45407 3.8799 17.1733 1.00685 -151.917 10.5774 -176.516 -152.566 49.2524 -171.741 0.301124 -13.6908 -31.8163 -76.0749 49.373 -69.0094 22.6055 -3.3876 -97.3425 0.420957 0.000575435 0.35866 -1.68416 5.84159 43.4559 -69.8957 -41.2043 62.5244 21.7179 -3.30402 81.5942 0.58676 0.000330997 0.0646654 -60.6095 -0.732804 93.6011 -6.2494 65.1621 2.41807 -0.0506314 1.30732 0.0189372 3.23917 -9.16458 9.81369 -25.7281 -2.75179 85.5706 1.41785 31.9772 2.82649 -4.02461 14.1668 0.0763295 1.98947 -4.23717 -11.8343 
27.5137 93.6406 -187.513 20.1889 -69.4516 -73.6016 -70.1915 0 88.8779 94.0172 68.2415 -8.21467 0.686207 18.154 0.368146 -149.755 9.97148 -177.861 -149.298 48.1915 -173.623 0.249667 -13.8412 -32.3843 -73.7784 50.3132 -69.6963 24.9416 0.163198 -88.9611 0.420957 0.000575435 0.35866 -1.83504 6.06501 44.7719 -70.2796 -39.1872 66.1043 19.7396 -3.12733 81.1889 0.58676 0.000330997 0.0646654 -55.0893 0.179839 95.2237 -11.327 73.4734 6.11373 -0.0169201 -0.415581 -0.120341 4.87117 -12.318 12.9049 -28.1127 -4.33071 83.974 1.18055 43.9477 -5.66701 -11.1071 -2.04527 1.5487 -0.303174 -6.06959 9.1401 
27.1471 93.5686 -178.469 14.668 -71.2115 -76.3851 -70.1915 0 88.8779 103.612 69.6661 -14.6658 0.860418 20.054 0.412782 -153.04 9.98293 -175.89 -154.166 48.7347 -171.99 0.250072 -13.6161 -33.9037 -75.7182 50.6159 -67.5436 28.0148 4.74157 -80.521 0.420957 0.000575435 0.35866 -1.85788 6.45845 43.2607 -68.2463 -38.2728 75.5922 21.9212 -4.76671 78.1775 0.58676 0.000330997 0.0646654 -47.9211 4.41048 96.9459 -15.5967 77.2975 10.841 0.70476 -3.50145 -0.433719 5.96655 -14.0416 12.8408 -33.9924 1.22665 85.1589 1.66431 47.2193 -4.5205 -9.90426 -8.31198 1.36164 1.43246 -7.10587 -5.74989 
